<svg xmlns="http://www.w3.org/2000/svg" width="1200" height="760" viewBox="0 0 1200 760">

  <defs>
    <linearGradient id="g" x1="0" y1="0" x2="1" y2="1">
      <stop offset="0" stop-color="#6d28d9"/>
      <stop offset=".55" stop-color="#0284c7"/>
      <stop offset="1" stop-color="#06b6d4"/>
    </linearGradient>
    <filter id="sh"><feDropShadow dx="0" dy="8" stdDeviation="12" flood-color="#94a3b8" flood-opacity=".25"/></filter>
  </defs>

<rect width="1200" height="760" fill="#fff"/>
<rect x="200" y="160" width="800" height="440" rx="26" ry="26" fill="#f8fafc" stroke="#e2e8f0"/>
<rect x="380" y="240" width="440" height="280" rx="22" ry="22" fill="url(#g)" opacity=".95"/><rect x="410" y="270" width="380" height="220" rx="14" ry="14" fill="#fff"/>
<text x="600" y="390" text-anchor="middle" fill="#0f172a" font-size="72" font-weight="900" font-family="system-ui, 'Noto Sans KR', sans-serif">AI</text>
<g stroke="url(#g)" stroke-width="10">
  <line x1="380" y1="270" x2="300" y2="220"/><line x1="380" y1="330" x2="280" y2="330"/>
  <line x1="380" y1="390" x2="290" y2="450"/><line x1="380" y1="450" x2="310" y2="520"/>
  <line x1="820" y1="270" x2="900" y2="220"/><line x1="820" y1="330" x2="920" y2="330"/>
  <line x1="820" y1="390" x2="910" y2="450"/><line x1="820" y1="450" x2="890" y2="520"/>
</g>
</svg>