<svg xmlns="http://www.w3.org/2000/svg" width="1400" height="800" viewBox="0 0 1400 800">

  <defs>
    <linearGradient id="g" x1="0" y1="0" x2="1" y2="1">
      <stop offset="0" stop-color="#6d28d9"/>
      <stop offset=".55" stop-color="#0284c7"/>
      <stop offset="1" stop-color="#06b6d4"/>
    </linearGradient>
    <filter id="sh"><feDropShadow dx="0" dy="8" stdDeviation="12" flood-color="#94a3b8" flood-opacity=".25"/></filter>
  </defs>

<rect width="1400" height="800" fill="#fff"/>
<rect x="100" y="120" width="1200" height="560" rx="18" fill="#f8fafc" stroke="#e2e8f0"/>
<g transform="translate(160,180)">
  <rect x="0" y="280" width="100" height="160" rx="10" fill="url(#g)"/>
  <rect x="140" y="180" width="100" height="260" rx="10" fill="url(#g)" opacity=".9"/>
  <rect x="280" y="120" width="100" height="320" rx="10" fill="url(#g)" opacity=".8"/>
  <rect x="420" y="220" width="100" height="220" rx="10" fill="url(#g)" opacity=".75"/>
  <rect x="560" y="80" width="100" height="360" rx="10" fill="url(#g)" opacity=".95"/>
</g>
<path d="M160,520 C360,380 520,420 720,340 920,260 1100,300 1200,240" stroke="#06b6d4" stroke-width="8" fill="none"/>
<g fill="#06b6d4"><circle cx="160" cy="520" r="7"/><circle cx="720" cy="340" r="7"/><circle cx="1200" cy="240" r="7"/></g>
</svg>