<svg xmlns="http://www.w3.org/2000/svg" width="1600" height="900" viewBox="0 0 1600 900">

  <defs>
    <linearGradient id="g" x1="0" y1="0" x2="1" y2="1">
      <stop offset="0" stop-color="#6d28d9"/>
      <stop offset=".55" stop-color="#0284c7"/>
      <stop offset="1" stop-color="#06b6d4"/>
    </linearGradient>
    <filter id="sh"><feDropShadow dx="0" dy="8" stdDeviation="12" flood-color="#94a3b8" flood-opacity=".25"/></filter>
  </defs>

<rect width="1600" height="900" fill="#fff"/>
<g opacity=".6"><circle cx="380" cy="220" r="220" fill="#e0f2fe"/><circle cx="1260" cy="280" r="280" fill="#f3e8ff"/></g>
<g transform="translate(320,180)" filter="url(#sh)">
  <rect width="960" height="540" rx="24" fill="#f8fafc" stroke="#e2e8f0"/>
  <rect x="40" y="40" width="320" height="180" rx="18" fill="url(#g)"/>
  <rect x="70" y="70" width="260" height="120" rx="12" fill="#fff"/>
  <circle cx="120" cy="130" r="10" fill="#6d28d9"/><circle cx="280" cy="130" r="10" fill="#0284c7"/>
  <rect x="150" y="160" width="100" height="8" rx="4" fill="#06b6d4"/>
  <g transform="translate(400,40)">
    <rect width="520" height="460" rx="18" fill="#fff" stroke="#e2e8f0"/>
    <path d="M40,360 C180,300 280,340 420,260" stroke="#06b6d4" stroke-width="6" fill="none"/>
    <g fill="url(#g)">
      <rect x="60" y="280" width="46" height="80" rx="8"/>
      <rect x="130" y="220" width="46" height="140" rx="8" opacity=".9"/>
      <rect x="200" y="170" width="46" height="190" rx="8" opacity=".8"/>
      <rect x="270" y="240" width="46" height="120" rx="8" opacity=".75"/>
      <rect x="340" y="140" width="46" height="220" rx="8" opacity=".95"/>
    </g>
  </g>
</g>
<text x="800" y="760" text-anchor="middle" font-size="46" font-weight="800" font-family="system-ui, 'Noto Sans KR', sans-serif" fill="#0f172a">ROBOT × AI — 제품에 쉽게 접목하세요.</text>
</svg>