<svg xmlns="http://www.w3.org/2000/svg" width="1600" height="900" viewBox="0 0 1600 900">

  <defs>
    <linearGradient id="g" x1="0" y1="0" x2="1" y2="1">
      <stop offset="0" stop-color="#6d28d9"/>
      <stop offset=".55" stop-color="#0284c7"/>
      <stop offset="1" stop-color="#06b6d4"/>
    </linearGradient>
    <filter id="sh"><feDropShadow dx="0" dy="8" stdDeviation="12" flood-color="#94a3b8" flood-opacity=".25"/></filter>
  </defs>

<rect width="1600" height="900" fill="#fff"/>
<g transform="translate(420,200)">
  <rect x="0" y="80" rx="24" ry="24" width="380" height="300" fill="#f1f5f9" stroke="#e2e8f0"/>
  <rect x="260" y="40" rx="14" ry="14" width="80" height="40" fill="url(#g)"/>
  <rect x="40" y="120" rx="14" ry="14" width="300" height="120" fill="#fff" stroke="#e2e8f0"/>
  <circle cx="120" cy="180" r="22" fill="#6d28d9"/>
  <circle cx="260" cy="180" r="22" fill="#0284c7"/>
  <rect x="140" y="220" width="120" height="10" rx="5" fill="#06b6d4"/>
  <rect x="-80" y="160" width="80" height="20" rx="10" fill="#e2e8f0"/>
  <rect x="380" y="160" width="80" height="20" rx="10" fill="#e2e8f0"/>
  <rect x="180" y="-30" width="12" height="50" rx="6" fill="url(#g)"/>
  <circle cx="186" cy="-36" r="12" fill="#06b6d4"/>
</g>
<g transform="translate(780,240)" fill="none" stroke="url(#g)" stroke-width="3">
  <path d="M0,120 C140,0 220,240 360,120" opacity=".9"/>
  <path d="M0,220 C160,100 260,300 380,200" opacity=".7"/>
  <path d="M0,40 C180,-40 260,160 420,60" opacity=".5"/>
  <circle cx="360" cy="120" r="6" fill="#06b6d4"/>
  <circle cx="380" cy="200" r="6" fill="#0284c7"/>
  <circle cx="420" cy="60" r="6" fill="#6d28d9"/>
</g>
</svg>