<!-- dark-variant -->
<svg data-variant="dark" xmlns="http://www.w3.org/2000/svg" width="1200" height="720" viewBox="0 0 1200 720">

  <defs>
    <linearGradient id="g" x1="0" y1="0" x2="1" y2="1">
      <stop offset="0" stop-color="#6d28d9"/>
      <stop offset=".55" stop-color="#0284c7"/>
      <stop offset="1" stop-color="#06b6d4"/>
    </linearGradient>
    <filter id="sh"><feDropShadow dx="0" dy="8" stdDeviation="12" flood-color="#94a3b8" flood-opacity=".25"/></filter>
  </defs>

<rect width="1200" height="720" fill="none"/>
<g transform="translate(200,80)">
  <path d="M400 0 L800 90 L800 330 C800 495 630 630 400 710 C170 630 0 495 0 330 L0 90 Z" fill="url(#g)"/>
  <path d="M400 40 L760 120 L760 330 C760 485 620 600 400 670 C180 600 40 485 40 330 L40 120 Z" fill="#e5e7eb" stroke="#e2e8f0"/>
  <g transform="translate(320,220)">
    <rect x="0" y="0" width="160" height="120" rx="14" fill="#0ea5c7" opacity=".1" stroke="#e2e8f0"/>
    <rect x="20" y="20" width="120" height="80" rx="10" fill="#0ea5c7" opacity=".25"/>
    <path d="M40 18 v-16 a40 40 0 0 1 80 0 v16" fill="none" stroke="#6d28d9" stroke-width="10"/>
  </g>
</g>
</svg>